<svg width="141" height="27" viewBox="0 0 141 27" fill="none" xmlns="http://www.w3.org/2000/svg">
<path d="M41.056 5.7C41.2713 5.7 41.379 6.26367 41.379 7.391C41.379 8.50567 41.2713 9.063 41.056 9.063H37.579V11.229H39.897C40.1123 11.229 40.22 11.723 40.22 12.711C40.22 13.6863 40.1187 14.174 39.916 14.174H37.579V18.753C37.579 18.9303 37.3383 19.0443 36.857 19.095C36.3883 19.1583 35.9957 19.19 35.679 19.19L34.786 19.152C34.1653 19.076 33.855 18.9493 33.855 18.772V6.194C33.855 5.99133 33.893 5.85833 33.969 5.795C34.0577 5.73167 34.1843 5.7 34.349 5.7H41.056ZM49.1249 6.08C49.1249 5.82667 49.8089 5.7 51.1769 5.7C52.5576 5.7 53.2479 5.82667 53.2479 6.08V14.801C53.2479 16.093 52.7856 17.1507 51.8609 17.974C50.9362 18.7847 49.6569 19.19 48.0229 19.19C46.4016 19.19 45.0779 18.772 44.0519 17.936C43.0386 17.0873 42.5319 15.9473 42.5319 14.516V6.099C42.5319 5.84567 43.2159 5.719 44.5839 5.719C45.9646 5.719 46.6549 5.84567 46.6549 6.099V14.668C46.6549 14.9213 46.7879 15.124 47.0539 15.276C47.3326 15.428 47.6239 15.504 47.9279 15.504C48.2319 15.504 48.5042 15.4343 48.7449 15.295C48.9982 15.1557 49.1249 14.9467 49.1249 14.668V6.08ZM65.2546 18.582C65.2546 18.848 64.6592 18.981 63.4686 18.981C62.2779 18.981 61.6319 18.886 61.5306 18.696L58.3576 12.768V18.677C58.3576 18.905 57.7686 19.019 56.5906 19.019C55.4252 19.019 54.8426 18.905 54.8426 18.677V5.966C54.8426 5.776 55.3429 5.681 56.3436 5.681C56.7362 5.681 57.1922 5.719 57.7116 5.795C58.2436 5.85833 58.5666 5.985 58.6806 6.175L61.7206 12.027V6.061C61.7206 5.82033 62.3096 5.7 63.4876 5.7C64.6656 5.7 65.2546 5.82033 65.2546 6.061V18.582Z" fill="#FF1A05"/>
<path d="M72.5969 5.529C73.5216 5.529 74.3322 5.662 75.0289 5.928C75.7382 6.18133 76.0929 6.52967 76.0929 6.973C76.0929 7.41633 75.9219 7.96733 75.5799 8.626C75.2506 9.272 74.9719 9.595 74.7439 9.595C74.6806 9.595 74.6046 9.56333 74.5159 9.5C74.4399 9.424 74.2499 9.348 73.9459 9.272C73.6546 9.18333 73.4012 9.139 73.1859 9.139C72.4512 9.139 71.8559 9.39867 71.3999 9.918C70.9566 10.4373 70.7349 11.2353 70.7349 12.312C70.7349 13.376 70.9629 14.1677 71.4189 14.687C71.8876 15.2063 72.4766 15.466 73.1859 15.466C73.4772 15.466 73.8002 15.428 74.1549 15.352C74.5222 15.2633 74.7819 15.143 74.9339 14.991C74.9592 14.9657 75.0099 14.953 75.0859 14.953C75.1619 14.953 75.3012 15.0987 75.5039 15.39C75.7192 15.6687 75.9156 16.0423 76.0929 16.511C76.2702 16.967 76.3589 17.3217 76.3589 17.575C76.3589 18.069 75.9789 18.4617 75.2189 18.753C74.4589 19.0443 73.5596 19.19 72.5209 19.19C70.8489 19.19 69.4746 18.601 68.3979 17.423C67.3212 16.245 66.7829 14.5857 66.7829 12.445C66.7829 10.2917 67.3339 8.60067 68.4359 7.372C69.5506 6.14333 70.9376 5.529 72.5969 5.529ZM83.4563 19.19C81.6829 19.19 80.2326 18.6073 79.1053 17.442C77.9906 16.2767 77.4333 14.5793 77.4333 12.35C77.4333 10.108 77.9969 8.41067 79.1243 7.258C80.2643 6.10533 81.7273 5.529 83.5133 5.529C85.3119 5.529 86.7623 6.099 87.8643 7.239C88.9663 8.36633 89.5173 10.0827 89.5173 12.388C89.5173 14.6807 88.9536 16.3907 87.8263 17.518C86.6989 18.6327 85.2423 19.19 83.4563 19.19ZM83.4753 9.177C82.8673 9.177 82.3543 9.45567 81.9363 10.013C81.5309 10.5703 81.3283 11.3557 81.3283 12.369C81.3283 13.3697 81.5246 14.1423 81.9173 14.687C82.3099 15.219 82.8229 15.485 83.4563 15.485C84.1023 15.485 84.6216 15.2127 85.0143 14.668C85.4196 14.1233 85.6223 13.3443 85.6223 12.331C85.6223 11.3177 85.4133 10.5387 84.9953 9.994C84.5899 9.44933 84.0833 9.177 83.4753 9.177ZM104.343 19.019C103.215 19.019 102.652 18.8923 102.652 18.639L102.253 11.02L99.9348 18.734C99.8841 18.886 99.4534 18.962 98.6428 18.962C97.8321 18.962 97.4141 18.8923 97.3888 18.753L94.9948 10.944L94.7288 18.525C94.7161 18.715 94.4754 18.848 94.0068 18.924C93.5381 18.9873 93.1454 19.019 92.8288 19.019C92.5248 19.019 92.2271 19 91.9358 18.962C91.3278 18.8733 91.0301 18.715 91.0428 18.487L91.4798 6.137C91.4798 5.833 92.2524 5.681 93.7978 5.681C94.2538 5.681 94.8111 5.719 95.4698 5.795C96.1284 5.85833 96.4958 5.99133 96.5718 6.194L98.6998 12.179L100.562 6.175C100.676 5.84567 101.55 5.681 103.184 5.681C103.652 5.681 104.21 5.719 104.856 5.795C105.514 5.85833 105.844 5.97867 105.844 6.156L106.395 18.62C106.395 18.7593 106.148 18.8607 105.654 18.924C105.16 18.9873 104.723 19.019 104.343 19.019ZM117.609 9.139C117.609 10.4563 117.039 11.457 115.899 12.141C116.52 12.369 117.039 12.7617 117.457 13.319C117.875 13.8763 118.084 14.668 118.084 15.694C118.084 16.7073 117.704 17.5117 116.944 18.107C116.197 18.7023 115.12 19 113.714 19H109.23C109.015 19 108.837 18.9303 108.698 18.791C108.559 18.639 108.489 18.4427 108.489 18.202V6.042C108.489 5.90267 108.508 5.814 108.546 5.776C108.597 5.72533 108.692 5.7 108.831 5.7H113.163C116.127 5.7 117.609 6.84633 117.609 9.139ZM112.137 8.778V11.267H112.232C113.448 11.267 114.056 10.8617 114.056 10.051C114.056 9.60767 113.936 9.28467 113.695 9.082C113.467 8.87933 113.081 8.778 112.536 8.778H112.137ZM112.137 13.509V15.979H112.479C113.024 15.979 113.423 15.8777 113.676 15.675C113.929 15.4723 114.056 15.1493 114.056 14.706C114.056 14.2627 113.936 13.9523 113.695 13.775C113.467 13.5977 113.081 13.509 112.536 13.509H112.137ZM128.491 19.038C127.389 19.038 126.794 18.8607 126.705 18.506L126.078 16.055H123.057L122.506 18.411C122.43 18.8037 121.822 19 120.682 19C120.074 19 119.625 18.9683 119.333 18.905C119.042 18.829 118.896 18.772 118.896 18.734L122.259 5.871C122.259 5.76967 123.127 5.719 124.862 5.719C126.598 5.719 127.465 5.76967 127.465 5.871L130.752 18.753C130.752 18.8417 130.461 18.9113 129.878 18.962C129.296 19.0127 128.833 19.038 128.491 19.038ZM123.532 13.642H125.527L124.672 9.709H124.558L123.532 13.642ZM137.248 18.696C137.248 18.9493 136.621 19.076 135.367 19.076C134.113 19.076 133.486 18.9493 133.486 18.696V9.158H131.206C130.991 9.158 130.839 8.86667 130.75 8.284C130.712 8.00533 130.693 7.72033 130.693 7.429C130.693 7.13767 130.712 6.85267 130.75 6.574C130.839 5.99133 130.991 5.7 131.206 5.7H139.471C139.686 5.7 139.838 5.99133 139.927 6.574C139.965 6.85267 139.984 7.13767 139.984 7.429C139.984 7.72033 139.965 8.00533 139.927 8.284C139.838 8.86667 139.686 9.158 139.471 9.158H137.248V18.696Z" fill="#fff"/>
<circle cx="19" cy="18" r="9" fill="#058FFF"/>
<mask id="mask0_373_1476" style="mask-type:alpha" maskUnits="userSpaceOnUse" x="10" y="9" width="18" height="18">
<circle cx="19" cy="18" r="9" fill="#058FFF"/>
</mask>
<g mask="url(#mask0_373_1476)">
<path d="M21.8007 9H16.1993C16.0375 13.0033 17.5996 13.9659 17.5996 18C17.5996 22.0341 16.0375 22.9967 16.1993 27H21.8007C21.9625 22.9967 20.4004 22.0341 20.4004 18C20.4004 13.9659 21.9625 13.0033 21.8007 9Z" fill="#034D8A"/>
<path d="M28 21.082L28 15.4805C23.9967 15.3187 23.0341 16.8809 19 16.8809C14.9659 16.8809 14.0033 15.3187 10 15.4805L10 21.082C14.0033 21.2438 14.9659 19.6816 19 19.6816C23.0341 19.6816 23.9967 21.2438 28 21.082Z" fill="#034D8A"/>
</g>
<circle cx="19" cy="18" r="7.03125" fill="#047BDB"/>
<circle cx="19" cy="18" r="6.1875" fill="#058FFF"/>
<path d="M19.424 14.864V15.32C19.8187 15.336 20.16 15.392 20.448 15.488C20.736 15.5787 20.88 15.7173 20.88 15.904C20.88 16.0693 20.824 16.288 20.712 16.56C20.6053 16.832 20.5307 16.976 20.488 16.992C20.04 16.8053 19.6853 16.7013 19.424 16.68V17.584C20.544 17.6267 21.104 18.1653 21.104 19.2C21.104 19.6853 20.9653 20.1013 20.688 20.448C20.4107 20.7947 19.9893 20.9973 19.424 21.056V21.608C19.424 21.704 19.3947 21.768 19.336 21.8C19.2827 21.832 19.2373 21.848 19.2 21.848L19.088 21.816C19.0133 21.7733 18.976 21.704 18.976 21.608V21.08C18.528 21.0693 18.1307 20.9893 17.784 20.84C17.4427 20.6907 17.272 20.5013 17.272 20.272C17.272 19.9733 17.3627 19.672 17.544 19.368C17.56 19.336 17.5813 19.3013 17.608 19.264C18.04 19.5253 18.496 19.672 18.976 19.704V18.824C17.84 18.7547 17.272 18.1733 17.272 17.08C17.272 16.6 17.424 16.2053 17.728 15.896C18.032 15.5867 18.448 15.4 18.976 15.336V14.864C18.976 14.768 19.0027 14.704 19.056 14.672C19.1147 14.64 19.1627 14.624 19.2 14.624L19.312 14.656C19.3867 14.6987 19.424 14.768 19.424 14.864ZM19.992 19.16C19.992 19.0373 19.9493 18.9547 19.864 18.912C19.784 18.864 19.6373 18.8347 19.424 18.824V19.688C19.8027 19.624 19.992 19.448 19.992 19.16ZM18.488 17.168C18.488 17.392 18.6507 17.5227 18.976 17.56V16.688C18.6507 16.7413 18.488 16.9013 18.488 17.168Z" fill="white"/>
<circle cx="9" cy="9" r="9" fill="#FF1A05"/>
<mask id="mask1_373_1476" style="mask-type:alpha" maskUnits="userSpaceOnUse" x="0" y="0" width="18" height="18">
<circle cx="9" cy="9" r="9" fill="#058FFF"/>
</mask>
<g mask="url(#mask1_373_1476)">
<path d="M11.8007 0H6.19925C6.03747 4.00327 7.59961 4.96588 7.59961 9C7.59961 13.0341 6.03747 13.9967 6.19925 18H11.8007C11.9625 13.9967 10.4004 13.0341 10.4004 9C10.4004 4.96588 11.9625 4.00327 11.8007 0Z" fill="#B31204"/>
<path d="M18 12.082L18 6.4805C13.9967 6.31872 13.0341 7.88086 9 7.88086C4.96588 7.88086 4.00329 6.31872 -3.13042e-07 6.4805L-3.79839e-07 12.082C4.00329 12.2438 4.96588 10.6816 9 10.6816C13.0341 10.6816 13.9967 12.2438 18 12.082Z" fill="#B31204"/>
</g>
<circle cx="9" cy="9" r="7.03125" fill="#DB1604"/>
<path d="M15.1875 9C15.1875 12.4173 12.4173 15.1875 9 15.1875C5.58274 15.1875 2.8125 12.4173 2.8125 9C2.8125 5.58274 5.58274 2.8125 9 2.8125C12.4173 2.8125 15.1875 5.58274 15.1875 9Z" fill="#FF1A05"/>
<path d="M9.424 5.864V6.32C9.81867 6.336 10.16 6.392 10.448 6.488C10.736 6.57867 10.88 6.71733 10.88 6.904C10.88 7.06933 10.824 7.288 10.712 7.56C10.6053 7.832 10.5307 7.976 10.488 7.992C10.04 7.80533 9.68533 7.70133 9.424 7.68V8.584C10.544 8.62667 11.104 9.16533 11.104 10.2C11.104 10.6853 10.9653 11.1013 10.688 11.448C10.4107 11.7947 9.98933 11.9973 9.424 12.056V12.608C9.424 12.704 9.39467 12.768 9.336 12.8C9.28267 12.832 9.23733 12.848 9.2 12.848L9.088 12.816C9.01333 12.7733 8.976 12.704 8.976 12.608V12.08C8.528 12.0693 8.13067 11.9893 7.784 11.84C7.44267 11.6907 7.272 11.5013 7.272 11.272C7.272 10.9733 7.36267 10.672 7.544 10.368C7.56 10.336 7.58133 10.3013 7.608 10.264C8.04 10.5253 8.496 10.672 8.976 10.704V9.824C7.84 9.75467 7.272 9.17333 7.272 8.08C7.272 7.6 7.424 7.20533 7.728 6.896C8.032 6.58667 8.448 6.4 8.976 6.336V5.864C8.976 5.768 9.00267 5.704 9.056 5.672C9.11467 5.64 9.16267 5.624 9.2 5.624L9.312 5.656C9.38667 5.69867 9.424 5.768 9.424 5.864ZM9.992 10.16C9.992 10.0373 9.94933 9.95467 9.864 9.912C9.784 9.864 9.63733 9.83467 9.424 9.824V10.688C9.80267 10.624 9.992 10.448 9.992 10.16ZM8.488 8.168C8.488 8.392 8.65067 8.52267 8.976 8.56V7.688C8.65067 7.74133 8.488 7.90133 8.488 8.168Z" fill="white"/>
</svg>
